<svg
    width="16"
    height="16"
    xmlns="http://www.w3.org/2000/svg"
    className="fill-slate-300"

>
    <path
        className="fill-white"
        d="M7 0h2v2H7zM12.88 1.637l1.414 1.415-1.415 1.413-1.413-1.414zM14 7h2v2h-2zM12.95 14.433l-1.414-1.413 1.413-1.415 1.415 1.414zM7 14h2v2H7zM2.98 14.364l-1.413-1.415 1.414-1.414 1.414 1.415zM0 7h2v2H0zM3.05 1.706 4.463 3.12 3.05 4.535 1.636 3.12z"
    />
    <path
        className="fill-slate-400"
        d="M8 4C5.8 4 4 5.8 4 8s1.8 4 4 4 4-1.8 4-4-1.8-4-4-4Z"
    />
</svg>